<svg width="67" height="58" viewBox="0 0 67 58" fill="none" xmlns="http://www.w3.org/2000/svg">
<path fill-rule="evenodd" clip-rule="evenodd" d="M7.07001 7.57996V50.7499H50.23V35.7499H53.56C54.7439 35.7469 55.9004 35.3937 56.884 34.7349C57.8676 34.076 58.6343 33.1409 59.0876 32.0472C59.5409 30.9536 59.6604 29.7503 59.4313 28.5888C59.2022 27.4273 58.6346 26.3595 57.8 25.5199C56.6767 24.4005 55.1559 23.7713 53.57 23.7699H50.24V7.56995H40.33C39.4604 9.57957 38.1314 11.3572 36.45 12.7599C34.0573 14.7484 31.0307 15.8129 27.92 15.7599C25.0415 15.7471 22.2725 14.6552 20.16 12.7C18.6631 11.2668 17.5109 9.51282 16.79 7.56995L7.08002 7.5199L7.07001 7.57996ZM0.400024 54.0599V0.899902L21.82 1.0199L22.45 3.52991C22.7562 5.16827 23.5308 6.68278 24.68 7.88995C25.6087 8.72911 26.8184 9.1894 28.07 9.17993C29.5818 9.17747 31.043 8.63482 32.19 7.6499C33.4499 6.59562 34.3254 5.15402 34.68 3.54993L35.26 0.96991L56.89 0.909912V17.5599C59.0118 18.14 60.9455 19.2637 62.5 20.8199C63.6762 21.9907 64.6094 23.3823 65.2463 24.9147C65.8831 26.4472 66.2109 28.0904 66.2109 29.7499C66.2109 31.4095 65.8831 33.0526 65.2463 34.5851C64.6094 36.1176 63.6762 37.5092 62.5 38.6799C60.951 40.2433 59.0153 41.3682 56.89 41.9399V57.3699H0.400024V54.0599Z" fill="#00926F"/>
</svg>
