<?xml version="1.0" encoding="UTF-8"?> <svg xmlns="http://www.w3.org/2000/svg" viewBox="0 0 347.57 259.68"> <defs> <style>.cls-1{fill:#666;}.cls-1,.cls-2,.cls-3{fill-rule:evenodd;}.cls-2,.cls-4{fill:#6d097a;}.cls-3{fill:#00926f;}</style> </defs> <g id="Слой_2" data-name="Слой 2"> <g id="Слой_1-2" data-name="Слой 1"> <path class="cls-1" d="M306.48,225.58h5.63v6.92h-1.19v-5.89h-3.26v5.89h-1.18v-6.92Zm7.69,0h2.52a3,3,0,0,1,2.06.6,2.07,2.07,0,0,1,.66,1.61,2.05,2.05,0,0,1-.66,1.6,3,3,0,0,1-2.06.6h-1.33v2.51h-1.19v-6.92Zm2.42,3.38a3.46,3.46,0,0,0,.78-.07,1.33,1.33,0,0,0,.51-.22.78.78,0,0,0,.26-.36,1.42,1.42,0,0,0,.08-.52,1.39,1.39,0,0,0-.08-.52.83.83,0,0,0-.26-.36,1.33,1.33,0,0,0-.51-.22,3.4,3.4,0,0,0-.78-.08h-1.23V229Zm7.2,3.65a3.68,3.68,0,0,1-1.2-.2,2.71,2.71,0,0,1-1-.62,2.91,2.91,0,0,1-.69-1.09,4.49,4.49,0,0,1-.26-1.61v-.2a4.22,4.22,0,0,1,.26-1.55,2.87,2.87,0,0,1,.69-1.06,2.69,2.69,0,0,1,1-.61,3.68,3.68,0,0,1,1.2-.19,3.74,3.74,0,0,1,1.21.19,2.57,2.57,0,0,1,1,.61,2.89,2.89,0,0,1,.7,1.06,4.23,4.23,0,0,1,.25,1.55v.2a4.5,4.5,0,0,1-.25,1.61,2.93,2.93,0,0,1-.7,1.09,2.59,2.59,0,0,1-1,.62,3.74,3.74,0,0,1-1.21.2Zm0-1.05a1.9,1.9,0,0,0,.71-.13,1.71,1.71,0,0,0,.62-.42,2.29,2.29,0,0,0,.43-.76,3.91,3.91,0,0,0,.16-1.16v-.2a3.5,3.5,0,0,0-.16-1.1,2.24,2.24,0,0,0-.43-.73,1.68,1.68,0,0,0-.62-.41,2.13,2.13,0,0,0-.71-.13,2.18,2.18,0,0,0-.72.13,1.64,1.64,0,0,0-.61.41,1.92,1.92,0,0,0-.42.73,3.23,3.23,0,0,0-.16,1.1v.2a3.61,3.61,0,0,0,.16,1.16,2,2,0,0,0,.42.76,1.67,1.67,0,0,0,.61.42,2,2,0,0,0,.72.13Zm4.88-6h4.64v1h-3.45v1.82H333v1h-3.16v2h3.45v1h-4.64v-6.92Zm6.36,0h1.19v2.9h.69l2.51-2.9h1.34l-2.91,3.29,3,3.63h-1.44l-2.51-3.09h-.69v3.09H335v-6.92Zm9,1h-2.32v-1h5.83v1H345.2v5.89H344v-5.89ZM181.06,239.12h4.69v1h-3.5v1.58h1.43a4.28,4.28,0,0,1,1.2.15,2.21,2.21,0,0,1,.85.44,1.61,1.61,0,0,1,.5.68,2.3,2.3,0,0,1,.17.88,2.35,2.35,0,0,1-.17.89,1.74,1.74,0,0,1-.5.68,2.34,2.34,0,0,1-.85.43,4.28,4.28,0,0,1-1.2.15h-2.62v-6.91Zm2.52,5.89a3.4,3.4,0,0,0,.78-.08,1.37,1.37,0,0,0,.5-.21.71.71,0,0,0,.27-.35,1.5,1.5,0,0,0,.08-.5,1.42,1.42,0,0,0-.08-.48.76.76,0,0,0-.27-.35,1.37,1.37,0,0,0-.5-.21,3.46,3.46,0,0,0-.78-.07h-1.33V245Zm4.09,1.13h-.17l-.18,0V245h.15a.79.79,0,0,0,.47-.14,1,1,0,0,0,.3-.56,6,6,0,0,0,.17-1.24c0-.54.05-1.26.05-2.16v-1.78h4.84V246h-1.19v-5.88h-2.5v.95a22.22,22.22,0,0,1-.13,2.6,5.55,5.55,0,0,1-.36,1.53,1.34,1.34,0,0,1-.61.73,1.86,1.86,0,0,1-.84.18Zm11.53-1.67h-2.81l-.58,1.56h-1.19l2.62-6.91h1.19L201,246h-1.26l-.58-1.56Zm-2.42-1h2l-1-2.85-1,2.85Zm5.59-4.33h4.44v1h-3.26V246h-1.18v-6.91Zm8.43,7a3.68,3.68,0,0,1-1.2-.19,2.84,2.84,0,0,1-1-.62,2.91,2.91,0,0,1-.69-1.09,4.49,4.49,0,0,1-.26-1.61v-.2a4.19,4.19,0,0,1,.26-1.55,2.91,2.91,0,0,1,.69-1.07,2.66,2.66,0,0,1,1-.6,3.68,3.68,0,0,1,1.2-.2,3.79,3.79,0,0,1,1.21.2,2.62,2.62,0,0,1,1,.6,2.91,2.91,0,0,1,.69,1.07,4,4,0,0,1,.26,1.55v.2a4.28,4.28,0,0,1-.26,1.61,2.91,2.91,0,0,1-.69,1.09,2.8,2.8,0,0,1-1,.62,3.78,3.78,0,0,1-1.21.19Zm0-1a2.13,2.13,0,0,0,.71-.13,1.59,1.59,0,0,0,.61-.42,2.18,2.18,0,0,0,.43-.77,3.49,3.49,0,0,0,.17-1.15v-.2a3.22,3.22,0,0,0-.17-1.1,2.08,2.08,0,0,0-.43-.73,1.47,1.47,0,0,0-.61-.41,1.9,1.9,0,0,0-.71-.13,2,2,0,0,0-.72.13,1.53,1.53,0,0,0-.61.41,2.08,2.08,0,0,0-.43.73,3.52,3.52,0,0,0-.15,1.1v.2a3.82,3.82,0,0,0,.15,1.15,2.18,2.18,0,0,0,.43.77,1.67,1.67,0,0,0,.61.42,2.18,2.18,0,0,0,.72.13Zm6.31-4.95h-2.32v-1h5.83v1H218.3V246h-1.19v-5.88Zm4.88-1h2.77a2.46,2.46,0,0,1,1.72.51A1.71,1.71,0,0,1,227,241a1.49,1.49,0,0,1-1,1.46,1.78,1.78,0,0,1,1,.56,1.66,1.66,0,0,1,.36,1.09,2.22,2.22,0,0,1-.14.79,1.51,1.51,0,0,1-.43.62,2.07,2.07,0,0,1-.75.4,3.52,3.52,0,0,1-1.09.14H222v-6.91Zm2.8,5.89a1.66,1.66,0,0,0,1.06-.25,1,1,0,0,0,.29-.76,1.23,1.23,0,0,0-.07-.44.64.64,0,0,0-.23-.33,1,1,0,0,0-.42-.21,2.84,2.84,0,0,0-.64-.07h-1.6V245Zm-.18-3a1.4,1.4,0,0,0,1-.26.9.9,0,0,0,.27-.69.85.85,0,0,0-.26-.68,1.54,1.54,0,0,0-1-.23h-1.43V242Zm7.1,4.13a3.68,3.68,0,0,1-1.2-.19,2.84,2.84,0,0,1-1-.62,2.91,2.91,0,0,1-.69-1.09,4.49,4.49,0,0,1-.26-1.61v-.2a4.19,4.19,0,0,1,.26-1.55,2.91,2.91,0,0,1,.69-1.07,2.66,2.66,0,0,1,1-.6,3.68,3.68,0,0,1,1.2-.2,3.79,3.79,0,0,1,1.21.2,2.62,2.62,0,0,1,1,.6,2.91,2.91,0,0,1,.69,1.07,4,4,0,0,1,.26,1.55v.2a4.28,4.28,0,0,1-.26,1.61,2.91,2.91,0,0,1-.69,1.09,2.8,2.8,0,0,1-1,.62,3.78,3.78,0,0,1-1.21.19Zm0-1a2.17,2.17,0,0,0,.71-.13,1.59,1.59,0,0,0,.61-.42,2,2,0,0,0,.43-.77,3.49,3.49,0,0,0,.17-1.15v-.2a3.22,3.22,0,0,0-.17-1.1,1.94,1.94,0,0,0-.43-.73,1.47,1.47,0,0,0-.61-.41,2,2,0,0,0-1.43,0,1.53,1.53,0,0,0-.61.41,2.08,2.08,0,0,0-.43.73,3.52,3.52,0,0,0-.15,1.1v.2a3.82,3.82,0,0,0,.15,1.15,2.18,2.18,0,0,0,.43.77,1.67,1.67,0,0,0,.61.42,2.18,2.18,0,0,0,.72.13Zm4.88-6h2.52a3,3,0,0,1,2,.6,2.28,2.28,0,0,1,0,3.21,3,3,0,0,1-2,.6h-1.33V246h-1.19v-6.91ZM239,242.5a4.16,4.16,0,0,0,.78-.07,1.37,1.37,0,0,0,.5-.22.76.76,0,0,0,.27-.37,1.58,1.58,0,0,0,.08-.52,1.6,1.6,0,0,0-.08-.51.74.74,0,0,0-.27-.36,1.22,1.22,0,0,0-.5-.23,3.46,3.46,0,0,0-.78-.07h-1.23v2.35Zm4.39-3.38h1.18v5l3.4-5h1.14V246h-1.18v-5l-3.4,5H243.4v-6.91Zm9.42,1H250.5v-1h5.82v1H254V246h-1.18v-5.88Zm4.88-1h4.64v1h-3.46V242H262v1h-3.16v2h3.46v1H257.7v-6.91Zm6.06,7h-.17a.86.86,0,0,1-.17,0V245h.15a.78.78,0,0,0,.46-.14.94.94,0,0,0,.31-.56,6.16,6.16,0,0,0,.16-1.24c0-.54.05-1.26.05-2.16v-1.78h4.84V246h-1.18v-5.88H265.7v.95a22.56,22.56,0,0,1-.12,2.6,5.89,5.89,0,0,1-.37,1.53,1.37,1.37,0,0,1-.6.73,1.87,1.87,0,0,1-.85.18Zm7.7-7h1.18v2.61H274a4.28,4.28,0,0,1,1.2.15,2.28,2.28,0,0,1,.85.44,1.7,1.7,0,0,1,.5.68,2.3,2.3,0,0,1,.16.88,2.35,2.35,0,0,1-.16.89,1.85,1.85,0,0,1-.5.68,2.43,2.43,0,0,1-.85.43,4.28,4.28,0,0,1-1.2.15h-2.52v-6.91Zm2.42,5.89a3.4,3.4,0,0,0,.78-.08,1.37,1.37,0,0,0,.5-.21.77.77,0,0,0,.27-.35,1.44,1.44,0,0,0,.08-.49,1.53,1.53,0,0,0-.08-.49.83.83,0,0,0-.27-.35,1.37,1.37,0,0,0-.5-.21,3.46,3.46,0,0,0-.78-.07h-1.24V245Zm4.38-5.89h1.19V242h3.36v-2.85H284V246h-1.18v-3h-3.36v3h-1.19v-6.91Zm10.61,7a3.68,3.68,0,0,1-1.2-.19,2.76,2.76,0,0,1-1-.62,2.91,2.91,0,0,1-.69-1.09,4.49,4.49,0,0,1-.26-1.61v-.2a4.19,4.19,0,0,1,.26-1.55,2.91,2.91,0,0,1,.69-1.07,2.59,2.59,0,0,1,1-.6,3.7,3.7,0,0,1,2.4,0,2.59,2.59,0,0,1,1,.6,2.91,2.91,0,0,1,.69,1.07,4.19,4.19,0,0,1,.26,1.55v.2a4.49,4.49,0,0,1-.26,1.61,2.91,2.91,0,0,1-.69,1.09,2.76,2.76,0,0,1-1,.62,3.68,3.68,0,0,1-1.2.19Zm0-1a2.17,2.17,0,0,0,.71-.13,1.59,1.59,0,0,0,.61-.42,2.18,2.18,0,0,0,.43-.77,3.49,3.49,0,0,0,.17-1.15v-.2a3.22,3.22,0,0,0-.17-1.1,2.08,2.08,0,0,0-.43-.73,1.47,1.47,0,0,0-.61-.41,2,2,0,0,0-1.43,0,1.53,1.53,0,0,0-.61.41,2.08,2.08,0,0,0-.43.73,3.5,3.5,0,0,0-.16,1.1v.2a3.8,3.8,0,0,0,.16,1.15,2.18,2.18,0,0,0,.43.77,1.67,1.67,0,0,0,.61.42,2.18,2.18,0,0,0,.72.13Zm4.88-6h4.44v1h-3.25V246h-1.19v-6.91Zm8.43,7A3.68,3.68,0,0,1,301,246a2.84,2.84,0,0,1-1-.62,2.91,2.91,0,0,1-.69-1.09,4.49,4.49,0,0,1-.26-1.61v-.2a4.19,4.19,0,0,1,.26-1.55,2.91,2.91,0,0,1,.69-1.07,2.66,2.66,0,0,1,1-.6,3.73,3.73,0,0,1,2.41,0,2.66,2.66,0,0,1,1,.6,2.91,2.91,0,0,1,.69,1.07,4.2,4.2,0,0,1,.25,1.55v.2a4.5,4.5,0,0,1-.25,1.61,2.91,2.91,0,0,1-.69,1.09,2.84,2.84,0,0,1-1,.62,3.7,3.7,0,0,1-1.21.19Zm0-1a2.23,2.23,0,0,0,.72-.13,1.67,1.67,0,0,0,.61-.42,2.35,2.35,0,0,0,.43-.77,3.51,3.51,0,0,0,.16-1.15v-.2a3.23,3.23,0,0,0-.16-1.1,2.24,2.24,0,0,0-.43-.73,1.53,1.53,0,0,0-.61-.41,2,2,0,0,0-.72-.13,2,2,0,0,0-.72.13,1.53,1.53,0,0,0-.61.41,1.92,1.92,0,0,0-.42.73,3.23,3.23,0,0,0-.16,1.1v.2a3.51,3.51,0,0,0,.16,1.15,2,2,0,0,0,.42.77,1.67,1.67,0,0,0,.61.42,2.18,2.18,0,0,0,.72.13Zm10.22.57a4,4,0,0,1-1.4-.22,2.76,2.76,0,0,1-1-.63,2.67,2.67,0,0,1-.63-1,3.62,3.62,0,0,1-.21-1.26v-.2a3.27,3.27,0,0,1,.21-1.19,2.33,2.33,0,0,1,.63-.91,2.67,2.67,0,0,1,1-.58,4.25,4.25,0,0,1,1.4-.21v-.66h1.18v.66a4.27,4.27,0,0,1,1.39.21,2.83,2.83,0,0,1,1,.58,2.33,2.33,0,0,1,.63.91,3.07,3.07,0,0,1,.22,1.19v.2a3.4,3.4,0,0,1-.22,1.26,2.67,2.67,0,0,1-.63,1,2.93,2.93,0,0,1-1,.63,4,4,0,0,1-1.39.22v.66H312.4v-.66Zm3.2-3.29a1.77,1.77,0,0,0-.51-1.37,2.11,2.11,0,0,0-1.51-.48v4.09a2,2,0,0,0,1.52-.53,2.15,2.15,0,0,0,.5-1.51v-.2Zm-5.22.2a2.15,2.15,0,0,0,.5,1.51,2,2,0,0,0,1.52.53v-4.09a2.12,2.12,0,0,0-1.52.48,1.8,1.8,0,0,0-.5,1.37v.2Zm10.94,3.56a3.68,3.68,0,0,1-1.2-.19,2.84,2.84,0,0,1-1-.62,2.91,2.91,0,0,1-.69-1.09,4.5,4.5,0,0,1-.25-1.61v-.2a4.2,4.2,0,0,1,.25-1.55,2.91,2.91,0,0,1,.69-1.07,2.66,2.66,0,0,1,1-.6,3.73,3.73,0,0,1,2.41,0,2.66,2.66,0,0,1,1,.6,2.91,2.91,0,0,1,.69,1.07,4.2,4.2,0,0,1,.25,1.55v.2a4.5,4.5,0,0,1-.25,1.61,2.91,2.91,0,0,1-.69,1.09,2.84,2.84,0,0,1-1,.62,3.7,3.7,0,0,1-1.21.19Zm0-1A2.18,2.18,0,0,0,322,245a1.67,1.67,0,0,0,.61-.42,2.18,2.18,0,0,0,.43-.77,3.51,3.51,0,0,0,.16-1.15v-.2a3.23,3.23,0,0,0-.16-1.1,2.08,2.08,0,0,0-.43-.73,1.53,1.53,0,0,0-.61-.41,2.06,2.06,0,0,0-1.44,0,1.53,1.53,0,0,0-.61.41,1.92,1.92,0,0,0-.42.73,3.23,3.23,0,0,0-.16,1.1v.2a3.51,3.51,0,0,0,.16,1.15,2,2,0,0,0,.42.77,1.67,1.67,0,0,0,.61.42,2.18,2.18,0,0,0,.72.13Zm4.88-6h1.19V242h3.36v-2.85h1.18V246h-1.18v-3h-3.36v3H326.2v-6.91Zm7.11,5.89h.74a4.2,4.2,0,0,0,.3-.89q.11-.51.18-1.11c0-.39.07-.8.08-1.21s0-.81,0-1.2v-1.48h4.68V245h.8v2.31H339V246h-4.64v1.29h-1.08V245Zm4.82,0v-4.86h-2.35v.65a19,19,0,0,1-.13,2.44,10.14,10.14,0,0,1-.4,1.77Zm7.59-.54h-2.8l-.59,1.56h-1.18l2.61-6.91H345l2.62,6.91H346.3l-.58-1.56Zm-2.42-1h2l-1-2.85-1,2.85ZM223.38,257.31v-.91l2.17-1.86v1.18l-1.34,1.12,1.34,1.11v1.23l-2.17-1.87Zm2.32,0v-.91l2.17-1.86v1.18l-1.33,1.12,1.33,1.11v1.23l-2.17-1.87Zm3.89-4.65h5.63v6.91H234v-5.88h-3.26v5.88h-1.18v-6.91ZM241.11,258h-2.8l-.58,1.56h-1.19l2.62-6.91h1.18l2.62,6.91H241.7l-.59-1.56Zm-2.42-1h2l-1-2.85-1,2.85Zm5.6-4.33h1.22l2.2,4.1,2.2-4.1h1.19v6.91h-1.19v-4.84l-1.82,3.41h-.79l-1.83-3.41v4.84h-1.18v-6.91Zm10.12,4.13a2.11,2.11,0,0,1-1.16-.75,2,2,0,0,1-.38-1.23,2.11,2.11,0,0,1,.17-.87,1.82,1.82,0,0,1,.49-.68,2.25,2.25,0,0,1,.81-.44,3.61,3.61,0,0,1,1.14-.16h2.62v6.91h-1.18v-2.64h-1.46l-1.53,2.64h-1.26l1.74-2.78Zm-.36-2a1,1,0,0,0,.36.83,2,2,0,0,0,1.27.3h1.24v-2.25h-1.24a2.12,2.12,0,0,0-1.27.29,1,1,0,0,0-.36.83Zm7.75-1.12h-2.32v-1h5.82v1H263v5.88H261.8v-5.88Zm4.88-1h1.18v2.61h1.33a4.35,4.35,0,0,1,1.21.15,2.52,2.52,0,0,1,.85.43,1.8,1.8,0,0,1,.5.69,2.5,2.5,0,0,1,0,1.76,1.7,1.7,0,0,1-.5.68,2.36,2.36,0,0,1-.85.44,4.35,4.35,0,0,1-1.21.15h-2.51v-6.91Zm2.42,5.89a3.31,3.31,0,0,0,.77-.08,1.42,1.42,0,0,0,.51-.21.85.85,0,0,0,.27-.35,1.75,1.75,0,0,0,0-1,.85.85,0,0,0-.27-.35,1.42,1.42,0,0,0-.51-.21,3.31,3.31,0,0,0-.77-.08h-1.24v2.26Zm6.85-5.89h5.63v6.91h-1.19v-5.88h-3.26v5.88H276v-6.91Zm10.51,7a3.53,3.53,0,0,1-1.21-.2,2.65,2.65,0,0,1-1-.61,3,3,0,0,1-.69-1.09,4.28,4.28,0,0,1-.26-1.61V256a4,4,0,0,1,.26-1.56,3,3,0,0,1,.69-1.06,2.65,2.65,0,0,1,1-.61,4.08,4.08,0,0,1,1.21-.19,4,4,0,0,1,1.2.19,2.61,2.61,0,0,1,1,.61,3,3,0,0,1,.69,1.06,4.24,4.24,0,0,1,.26,1.56v.2a4.49,4.49,0,0,1-.26,1.61,3,3,0,0,1-.69,1.09,2.61,2.61,0,0,1-1,.61,3.44,3.44,0,0,1-1.2.2Zm0-1.05a2.16,2.16,0,0,0,.71-.12,1.67,1.67,0,0,0,.61-.42,2.18,2.18,0,0,0,.43-.77,3.55,3.55,0,0,0,.16-1.15V256a3.2,3.2,0,0,0-.16-1.1,2,2,0,0,0-.43-.73,1.53,1.53,0,0,0-.61-.41,2,2,0,0,0-1.43,0,1.57,1.57,0,0,0-.62.41,2.13,2.13,0,0,0-.42.73,3.46,3.46,0,0,0-.16,1.1v.2a3.84,3.84,0,0,0,.16,1.15,2.34,2.34,0,0,0,.42.77,1.71,1.71,0,0,0,.62.42,2.18,2.18,0,0,0,.72.12Zm4.88-6h1.18v2.89h.69l2.51-2.89h1.35L294.15,256l3,3.62h-1.44l-2.51-3.09h-.69v3.09h-1.18v-6.91Zm9.86,7a3.44,3.44,0,0,1-1.2-.2,2.69,2.69,0,0,1-1-.61,3,3,0,0,1-.69-1.09,4.49,4.49,0,0,1-.26-1.61V256a4.24,4.24,0,0,1,.26-1.56,3,3,0,0,1,.69-1.06,2.69,2.69,0,0,1,1-.61,3.92,3.92,0,0,1,2.41,0,2.69,2.69,0,0,1,1,.61,3,3,0,0,1,.69,1.06,4.25,4.25,0,0,1,.25,1.56v.2a4.5,4.5,0,0,1-.25,1.61,3,3,0,0,1-.69,1.09,2.69,2.69,0,0,1-1,.61,3.45,3.45,0,0,1-1.21.2Zm0-1.05a2.22,2.22,0,0,0,.72-.12,1.67,1.67,0,0,0,.61-.42,2.18,2.18,0,0,0,.43-.77,3.55,3.55,0,0,0,.16-1.15V256a3.2,3.2,0,0,0-.16-1.1,2,2,0,0,0-.43-.73,1.53,1.53,0,0,0-.61-.41,2,2,0,0,0-.72-.13,2,2,0,0,0-.72.13,1.53,1.53,0,0,0-.61.41,1.85,1.85,0,0,0-.42.73,3.2,3.2,0,0,0-.16,1.1v.2a3.55,3.55,0,0,0,.16,1.15,2,2,0,0,0,.42.77,1.67,1.67,0,0,0,.61.42,2.18,2.18,0,0,0,.72.12Zm4.59,1.05h-.17l-.18,0v-1.12h.15a.82.82,0,0,0,.47-.14,1,1,0,0,0,.3-.56,6.14,6.14,0,0,0,.17-1.24c0-.54.05-1.26.05-2.16v-1.78h4.84v6.91h-1.19v-5.88h-2.51v.94a22.63,22.63,0,0,1-.12,2.61,5.17,5.17,0,0,1-.37,1.53,1.41,1.41,0,0,1-.6.73,1.86,1.86,0,0,1-.84.18Zm7.69-7h4.64v1h-3.45v1.81h3.16v1h-3.16v2h3.45v1h-4.64v-6.91Zm6.36,0H321v2.84h3.36v-2.84h1.18v6.91h-1.18v-3H321v3h-1.19v-6.91Zm7.8,0h1.18v5l3.4-5h1.14v6.91h-1.18v-5l-3.4,5h-1.14v-6.91Zm7.79,0h1.18v5l3.4-5h1.15v6.91H340v-5l-3.4,5h-1.14v-6.91Zm2.86-.44a1.93,1.93,0,0,1-1.35-.41,1.56,1.56,0,0,1-.43-1.17h1.09a1,1,0,0,0,.17.64.7.7,0,0,0,.52.19.69.69,0,0,0,.52-.19.93.93,0,0,0,.17-.64h1.09a1.52,1.52,0,0,1-.43,1.17,1.93,1.93,0,0,1-1.35.41Zm6.76,4.18v.91l-2.17,1.87V258l1.33-1.11-1.33-1.12v-1.22l2.17,1.86Zm2.32,0v.91l-2.17,1.87V258l1.33-1.11-1.33-1.12v-1.22Z"></path> <path class="cls-2" d="M88.91,22.58c9-16.84,34.22-29.57,61-18.32,21.3-6.2,43.66-5.52,58.75,5.71l-36.3-.55-.32,21.06h2.43a9.84,9.84,0,0,1,9.65,10v0h0a9.85,9.85,0,0,1-10,9.66l-2.38,0-.33,21,21,.32,0-2.41a9.85,9.85,0,0,1,10-9.68h0a9.85,9.85,0,0,1,9.65,10v2.39l18.6.29,2.39,0,.72-46.93c32.37,4.43,49.74,47.48,19.66,75.75-.81,10.65-5.69,19.22-13.41,25.81l-7.94-41.87-16,3a10.12,10.12,0,0,0-19.89,3.77L179,94.93l2.78,14.44c5.86.2,11.22,3.62,12.34,9.56s-.8,12.38-7.61,15.14l1.75,9.5c-5.1.28-10.33.31-15.63.09l-.62-3.58a13.05,13.05,0,0,0-4.44-25.27L164.46,97l-18.17,3.18a13.07,13.07,0,0,0-14.24-8.31l-.23,0a13,13,0,0,0-8.42,5.36,12.89,12.89,0,0,0-2.37,7.34l-15,2.63-2.36.42L110.89,149c-5.06-.3-15.34-3.41-22.17-10-6.86,5.21-19.2,16.24-32.36,34.88-3.35-.94-10.87-1.39-14.25-.33C46.54,157.7,52.52,145.42,56.18,137,37,135.62,33.67,113.05,40.46,104.08c-29.86-34.94,4.47-88.7,48.45-81.5Zm125.22-7.73-37-.57-.17,11.63a14.62,14.62,0,0,1,12,14.59h0v0a14.63,14.63,0,0,1-12.46,14.26l-.18,11.63,11.64.18a14.64,14.64,0,0,1,14.59-12h0A14.63,14.63,0,0,1,216.8,67l11.64.18.65-42.43a42.69,42.69,0,0,0-7.8.57,42.34,42.34,0,0,0-7.16-10.51ZM155.88,81.71l-4.17-16,2-.76a8.25,8.25,0,0,0-4.15-15.87l-2.13.32L142.7,31.26,92.25,44.43l13.18,50.46,11-2.88a13.89,13.89,0,0,1,3-7.35,17.2,17.2,0,0,1,8.76-5.83,18.47,18.47,0,0,1,10.82.74,13.7,13.7,0,0,1,6.34,4.89l10.53-2.75Zm1.51-13.2A13.06,13.06,0,0,0,151,44.2l-4.91-18.79L86.4,41,102,100.73l19.26-5-.1-2a9,9,0,0,1,2-6.12,12.2,12.2,0,0,1,6.19-4.16,13.44,13.44,0,0,1,7.87.57A8.64,8.64,0,0,1,142,88.28l.85,1.77,18.84-4.92-4.34-16.62Zm10.32,74.87-1.23-7,2.37-.41a8.28,8.28,0,0,0,5.33-3.39A8.24,8.24,0,0,0,166,119.74l-2.37.41-3.07-17.55-18.4,3.23v-2.65a8.24,8.24,0,0,0-9.51-6.5h0a8.23,8.23,0,0,0-6.65,9.54l0,.21v2.22l-2,.35-14.79,2.59,6.66,38c7.24,1.29,26.23-.32,34.49-8.26C156.14,142.3,162,143,167.71,143.38Z"></path> <path class="cls-3" d="M261.21,154.55l51.18,8.06,8.06-51.18L305.06,109a9.69,9.69,0,0,0-19.14-3l-16.65-2.62-2.49,16.07A10.69,10.69,0,0,1,273.62,131c-.79,4.28-3.91,7.18-9.82,7.69Z"></path> <path class="cls-2" d="M47.22,207.36a19.73,19.73,0,0,1-5.94-.85,12.74,12.74,0,0,1-4.61-2.5,11.17,11.17,0,0,1-3-4.17A14.68,14.68,0,0,1,32.6,194v-1a15.51,15.51,0,0,1,1-5.85,10.92,10.92,0,0,1,2.87-4.19,12.24,12.24,0,0,1,4.46-2.5,18.46,18.46,0,0,1,5.78-.85c4.82,0,8.39,1.15,10.68,3.45s3.45,5.69,3.45,10.19v3H43.65a4.37,4.37,0,0,0,1,2.5,3,3,0,0,0,2,.8H60.28a9.32,9.32,0,0,1-3.81,5.56c-2.26,1.53-5.35,2.29-9.25,2.29ZM47,187.43a3,3,0,0,0-2.41.86,4,4,0,0,0-.87,2.16h6.35a4.17,4.17,0,0,0-.84-2.16,2.69,2.69,0,0,0-2.23-.86Zm16.36-7.09h14l3.52,9.91,3.52-9.91H98v26.27H88.13V192.48l-4,9.67H77.22l-4-9.67v14.13H63.34V180.34Zm51.8,27a19.73,19.73,0,0,1-5.94-.85,12.87,12.87,0,0,1-4.62-2.5,11.26,11.26,0,0,1-3-4.17,14.68,14.68,0,0,1-1.07-5.87v-1a15.51,15.51,0,0,1,1-5.85,10.92,10.92,0,0,1,2.87-4.19,12.24,12.24,0,0,1,4.46-2.5,18.46,18.46,0,0,1,5.78-.85c4.82,0,8.39,1.15,10.68,3.45s3.45,5.69,3.45,10.19v3H111.57a4.37,4.37,0,0,0,1,2.5,3.43,3.43,0,0,0,2.6.82H128.2a9.32,9.32,0,0,1-3.81,5.56c-2.26,1.53-5.35,2.29-9.25,2.29Zm-.24-19.93a3,3,0,0,0-2.41.86,4,4,0,0,0-.87,2.16H118a4.17,4.17,0,0,0-.84-2.16,2.69,2.69,0,0,0-2.23-.86Zm16.36-7.09h10.9v8.52h5.46v-8.52h10.9v26.27h-10.9v-9h-5.46v9h-10.9V180.34Zm51.06,26.27H162V180.34H172.9v17.55h4.46V180.34h10.91v17.55h3v14.92h-8.92v-6.2Zm11.4-26.27h10.91v10.9l7.19-10.9H221v26.27H210.08v-10.9l-7.18,10.9h-9.18V180.34Zm34.66,17a7.5,7.5,0,0,1-3.18-3.1,9.38,9.38,0,0,1-1-4.39,11,11,0,0,1,.67-3.89,7.76,7.76,0,0,1,2.06-3,9.45,9.45,0,0,1,3.54-2,17,17,0,0,1,5.14-.69h14.87v26.27H239.58V199h-1L235,206.61h-11.8l5.16-9.22Zm6.74-7.49a1.53,1.53,0,0,0,.67,1.42,2.89,2.89,0,0,0,1.56.42h2.23v-3.67h-2.23a3,3,0,0,0-1.56.4A1.51,1.51,0,0,0,235.12,189.9Z"></path> <path class="cls-3" d="M259.57,207.34a5.88,5.88,0,0,1-2.33-.47,6.1,6.1,0,0,1-1.89-1.27,6,6,0,0,1-1.26-1.88,5.88,5.88,0,0,1-.47-2.33,6,6,0,0,1,1.73-4.27,5.67,5.67,0,0,1,1.89-1.23,6.26,6.26,0,0,1,4.66,0,5.63,5.63,0,0,1,1.88,1.23,6.1,6.1,0,0,1,1.27,1.89,6,6,0,0,1,.47,2.38,5.88,5.88,0,0,1-.47,2.33,6,6,0,0,1-3.15,3.15,5.91,5.91,0,0,1-2.33.47Zm10.16-27h10.12v3a7.2,7.2,0,0,1,2.8-2.62,10.41,10.41,0,0,1,5.18-1.1,8.42,8.42,0,0,1,6.44,2.38q2.24,2.38,2.23,7v17.6H285.6V191.22a3.5,3.5,0,0,0-.55-2.05,1.92,1.92,0,0,0-1.68-.77,2.6,2.6,0,0,0-2.09.77,3.09,3.09,0,0,0-.64,2.05v15.37H269.73V180.32Zm43.63,27a19.8,19.8,0,0,1-5.95-.84A13,13,0,0,1,302.8,204a11.13,11.13,0,0,1-3-4.16,14.94,14.94,0,0,1-1.07-5.88v-1a15.59,15.59,0,0,1,1-5.85,11.13,11.13,0,0,1,2.88-4.19,12.16,12.16,0,0,1,4.46-2.5,18.69,18.69,0,0,1,5.77-.85q7.25,0,10.69,3.45T327,193.21v3h-17.2a4.27,4.27,0,0,0,1,2.51,3.39,3.39,0,0,0,2.52.81h13.13a9.33,9.33,0,0,1-3.81,5.55q-3.39,2.28-9.24,2.28Zm-.25-19.93a3,3,0,0,0-2.4.86,4,4,0,0,0-.87,2.16h6.34a4.09,4.09,0,0,0-.84-2.16,2.7,2.7,0,0,0-2.23-.86Zm28.75,19.53a18.79,18.79,0,0,1-4.8-.54,7.31,7.31,0,0,1-3.33-1.84,7.89,7.89,0,0,1-1.9-3.44,19.78,19.78,0,0,1-.62-5.43V174.37h10.9v5.95h5V189h-5v4.37c0,.86,0,1.59.1,2.2a3.89,3.89,0,0,0,.42,1.47,1.91,1.91,0,0,0,.95.79,4.64,4.64,0,0,0,1.66.25,18.7,18.7,0,0,0,2.33-.15v8.43c-.93.16-1.91.29-2.95.39S342.66,206.94,341.86,206.94Z"></path> <path class="cls-4" d="M0,198.4H2.55a11,11,0,0,0,1.43-4A26.07,26.07,0,0,0,4.39,190v-9.64H28.63V198.4h2.55v15.36H22v-6.38H9.18v6.38H0Zm17.4,0v-9.08H14.08v1.73a25.31,25.31,0,0,1-.35,4.65,13.72,13.72,0,0,1-.77,2.7Z"></path> </g> </g> </svg> 