<?xml version="1.0" encoding="UTF-8"?> <svg xmlns="http://www.w3.org/2000/svg" viewBox="0 0 224.76 318.57"> <defs> <style>.cls-1{fill:#476f55;}.cls-1,.cls-2,.cls-3{fill-rule:evenodd;}.cls-2{fill:#df2726;}.cls-3{fill:#9d1b2e;}</style> </defs> <g id="Слой_2" data-name="Слой 2"> <g id="Слой_1-2" data-name="Слой 1"> <polygon class="cls-1" points="1.89 209.84 20.23 209.84 20.23 230.18 14.61 230.18 14.61 214.84 7.5 214.84 7.5 230.18 1.89 230.18 1.89 209.84"></polygon> <path class="cls-1" d="M37.2,222.13l-2.26-5.75-2.29,5.75ZM32.28,209.7h5.41l8.64,20.48h-6l-1.45-3.66H31l-1.44,3.66H23.67Z"></path> <polygon class="cls-1" points="49.75 209.84 55.69 209.84 60.53 217.72 65.36 209.84 71.31 209.84 71.31 230.18 65.71 230.18 65.71 218.5 60.53 226.47 60.41 226.47 55.25 218.53 55.25 230.18 49.75 230.18 49.75 209.84"></polygon> <path class="cls-1" d="M84.31,214.69c-1.88,0-3,.85-3,2.47v0c0,1.54,1.13,2.41,3,2.41H88v-4.91Zm9.3,15.49H88V224H85.55l-4.11,6.16H74.92l4.9-7.09a6.31,6.31,0,0,1-4.2-6.1v0c0-4.71,3.53-7.12,8.83-7.12h9.16Z"></path> <polygon class="cls-1" points="103.6 214.78 97.55 214.78 97.55 209.84 115.31 209.84 115.31 214.78 109.23 214.78 109.23 230.19 103.6 230.19 103.6 214.78"></polygon> <path class="cls-1" d="M127.51,225.51c2,0,3.24-.91,3.24-2.56v-.06c0-1.63-1.16-2.5-3.22-2.5h-2.69v5.12Zm-8.29-15.67h5.62v6.08h3c5.12,0,8.52,2.35,8.52,7V223c0,4.56-3.31,7.23-8.7,7.23h-8.43Z"></path> <polygon class="cls-1" points="1.89 243.74 20.23 243.74 20.23 264.08 14.61 264.08 14.61 248.73 7.5 248.73 7.5 264.08 1.89 264.08 1.89 243.74"></polygon> <path class="cls-1" d="M40.68,254v-.06a5.24,5.24,0,0,0-5.19-5.49,5.18,5.18,0,0,0-5.15,5.43v.06a5.27,5.27,0,0,0,5.21,5.49A5.18,5.18,0,0,0,40.68,254ZM24.6,254v-.06a10.64,10.64,0,0,1,10.95-10.58,10.55,10.55,0,0,1,10.9,10.52v.06a10.65,10.65,0,0,1-11,10.58A10.54,10.54,0,0,1,24.6,254Z"></path> <polygon class="cls-1" points="50.79 243.74 56.41 243.74 56.38 251.41 57.39 251.41 63.54 243.74 70.26 243.74 61.83 253.59 70.67 264.08 63.71 264.08 57.39 256.29 56.38 256.29 56.41 264.08 50.79 264.08 50.79 243.74"></polygon> <path class="cls-1" d="M87.41,254v-.06a5.23,5.23,0,0,0-5.18-5.49,5.18,5.18,0,0,0-5.16,5.43v.06a5.27,5.27,0,0,0,5.21,5.49A5.18,5.18,0,0,0,87.41,254Zm-16.08,0v-.06a10.93,10.93,0,0,1,21.85-.06v.06a10.93,10.93,0,0,1-21.85.06Z"></path> <polygon class="cls-1" points="116.73 264.08 110.5 264.08 105.6 251.38 100.7 264.08 94.62 264.08 103.08 243.59 108.24 243.59 116.73 264.08"></polygon> <polygon class="cls-1" points="120.15 243.74 136.46 243.74 136.46 248.5 125.71 248.5 125.71 251.61 135.45 251.61 135.45 256.06 125.71 256.06 125.71 259.29 136.61 259.29 136.61 264.08 120.15 264.08 120.15 243.74"></polygon> <polygon class="cls-1" points="140.95 243.74 146.57 243.74 146.57 251.35 153.78 251.35 153.78 243.74 159.41 243.74 159.41 264.08 153.78 264.08 153.78 256.35 146.57 256.35 146.57 264.08 140.95 264.08 140.95 243.74"></polygon> <polygon class="cls-1" points="177.97 264.08 177.97 252.49 169.34 264.08 164.44 264.08 164.44 243.74 170.06 243.74 170.06 254.9 178.41 243.74 183.6 243.74 183.6 264.08 177.97 264.08"></polygon> <path class="cls-1" d="M192.52,238h3.33a2.23,2.23,0,0,0,2.38,1.31,2.27,2.27,0,0,0,2.4-1.31h3.31c-.38,2.91-2.5,4.39-5.71,4.39s-5.33-1.48-5.71-4.39Zm9.65,26.07V252.49l-8.64,11.59h-4.9V243.74h5.62V254.9l8.35-11.16h5.19v20.34Z"></path> <path class="cls-1" d="M6.5,290.78c2.05,0,3.56-.88,3.56-2.54v0c0-1.73-1.45-2.47-3.48-2.47H2.4v5ZM.89,278.59h9.55V280h-8v4.38H6.65c2.93,0,4.94,1.25,4.94,3.77v0c0,2.7-2.31,4-5.15,4H.89Z"></path> <polygon class="cls-1" points="25.22 291.78 23.55 291.78 19.97 283.51 16.38 291.78 14.77 291.78 19.3 281.67 20.67 281.67 25.22 291.78"></polygon> <path class="cls-1" d="M34.7,288.09v-1a10.47,10.47,0,0,0-2.94-.43c-1.88,0-2.92.82-2.92,2.08v0c0,1.26,1.16,2,2.51,2,1.84,0,3.35-1.13,3.35-2.72Zm-7.37.78v0c0-2.12,1.74-3.24,4.28-3.24a10.32,10.32,0,0,1,3.07.43v-.35c0-1.81-1.1-2.74-3-2.74a7.1,7.1,0,0,0-3,.73l-.44-1.22a8.31,8.31,0,0,1,3.64-.83,4.38,4.38,0,0,1,3.23,1.11,4,4,0,0,1,1,2.92v6.14H34.68v-1.52A4.37,4.37,0,0,1,31.06,292C29.21,292,27.33,290.92,27.33,288.87Z"></path> <polygon class="cls-1" points="39.83 281.75 47.11 281.75 47.11 283.1 41.32 283.1 41.32 291.78 39.83 291.78 39.83 281.75"></polygon> <path class="cls-1" d="M57.48,286.81v0a3.79,3.79,0,0,0-3.72-3.92,3.7,3.7,0,0,0-3.65,3.88v0a3.76,3.76,0,0,0,3.7,3.9,3.69,3.69,0,0,0,3.67-3.86Zm-8.9,0v0a5.22,5.22,0,1,1,10.43,0v0A5.21,5.21,0,0,1,53.76,292,5.13,5.13,0,0,1,48.58,286.81Z"></path> <polygon class="cls-1" points="64.53 283.08 60.52 283.08 60.52 281.75 70.04 281.75 70.04 283.08 66.02 283.08 66.02 291.78 64.53 291.78 64.53 283.08"></polygon> <path class="cls-1" d="M74.26,290.57H77.8c1.5,0,2.33-.62,2.33-1.57s-.85-1.7-2.48-1.7H74.26v3.27Zm3.27-4.44c1.44,0,2.19-.66,2.19-1.66S79,283,77.67,283H74.26v3.18Zm-4.74-4.38h5c2.08,0,3.39,1,3.39,2.58a2.35,2.35,0,0,1-1.8,2.31c1.32.35,2.19,1.06,2.19,2.42,0,1.77-1.48,2.72-3.78,2.72h-5Z"></path> <path class="cls-1" d="M93.17,286.81v0a3.79,3.79,0,0,0-3.72-3.92,3.7,3.7,0,0,0-3.65,3.88v0a3.75,3.75,0,0,0,3.69,3.9,3.69,3.69,0,0,0,3.68-3.86Zm-8.9,0v0a5.22,5.22,0,1,1,10.43,0v0A5.21,5.21,0,0,1,89.45,292,5.13,5.13,0,0,1,84.27,286.81Z"></path> <path class="cls-1" d="M106.5,286.79v0a3.61,3.61,0,0,0-3.52-3.89,3.73,3.73,0,0,0-3.61,3.86v0a3.72,3.72,0,0,0,3.61,3.88,3.53,3.53,0,0,0,3.52-3.86Zm-8.56-5h1.48v2a4.51,4.51,0,0,1,3.84-2.23,4.88,4.88,0,0,1,4.77,5.2v0a4.9,4.9,0,0,1-4.77,5.22,4.54,4.54,0,0,1-3.84-2.13v5H97.94Z"></path> <polygon class="cls-1" points="111.33 281.75 112.82 281.75 112.82 289.53 118.89 281.75 120.33 281.75 120.33 291.78 118.86 291.78 118.86 283.98 112.72 291.78 111.33 291.78 111.33 281.75"></polygon> <polygon class="cls-1" points="127.12 283.08 123.12 283.08 123.12 281.75 132.63 281.75 132.63 283.08 128.61 283.08 128.61 291.78 127.12 291.78 127.12 283.08"></polygon> <path class="cls-1" d="M142.1,286.21c-.15-1.83-1.2-3.42-3.19-3.42a3.46,3.46,0,0,0-3.25,3.42Zm-7.95.58v0a4.94,4.94,0,0,1,4.8-5.22c3,0,4.66,2.37,4.66,5.3a3.7,3.7,0,0,1,0,.48h-7.93a3.5,3.5,0,0,0,3.52,3.4,4.15,4.15,0,0,0,3.16-1.42l.92.83a5.12,5.12,0,0,1-4.12,1.89A5,5,0,0,1,134.15,286.79Z"></path> <polygon class="cls-1" points="155.92 291.78 154.25 291.78 150.68 283.51 147.08 291.78 145.47 291.78 150 281.67 151.37 281.67 155.92 291.78"></polygon> <path class="cls-1" d="M163.27,290.5c1.69,0,2.5-.76,2.5-2s-.81-2-2.47-2h-3v4Zm-4.46-8.75h1.49v3.45h3c2.44,0,3.93,1.26,3.93,3.26v0c0,2-1.45,3.28-4,3.28h-4.49Z"></path> <polygon class="cls-1" points="170.26 281.75 171.75 281.75 171.75 286.03 177.73 286.03 177.73 281.75 179.2 281.75 179.2 291.78 177.73 291.78 177.73 287.39 171.75 287.39 171.75 291.78 170.26 291.78 170.26 281.75"></polygon> <path class="cls-1" d="M193.4,281.75h1.49v10H193.4v-10Zm-8.82,8.75h3c1.68,0,2.5-.76,2.5-2s-.82-2-2.48-2h-3v4Zm0-5.3h3.06c2.44,0,3.93,1.26,3.93,3.26v0c0,2-1.45,3.28-4,3.28H183.1v-10h1.48Z"></path> <path class="cls-1" d="M200.4,277.84h1.08a1.9,1.9,0,0,0,3.56,0h1.08a2.9,2.9,0,0,1-5.72,0Zm-1.62,3.91h1.48v7.78l6.08-7.78h1.43v10H206.3V284l-6.13,7.8h-1.39Z"></path> <path class="cls-1" d="M7.7,306.69v7.52c3.19-.06,4.76-1.59,4.76-3.75s-1.59-3.7-4.76-3.77Zm-1.43,7.52v-7.52c-3.2.07-4.74,1.6-4.74,3.75s1.56,3.71,4.74,3.77Zm0,4.36v-3.05C2.17,315.45,0,313.29,0,310.46s2.18-5,6.25-5.08V301.3H7.72v4.08c4.06.1,6.25,2.23,6.25,5s-2.21,5-6.25,5.1v3.05Z"></path> <path class="cls-1" d="M26.53,310.1v0a3.78,3.78,0,0,0-3.71-3.92A3.7,3.7,0,0,0,19.16,310v0A3.75,3.75,0,0,0,22.85,314a3.69,3.69,0,0,0,3.68-3.86Zm-8.9,0v0a5.22,5.22,0,1,1,10.43,0v0a5.19,5.19,0,0,1-5.24,5.23A5.14,5.14,0,0,1,17.63,310.1Z"></path> <polygon class="cls-1" points="31.3 305.04 32.78 305.04 32.78 309.33 38.76 309.33 38.76 305.04 40.23 305.04 40.23 315.07 38.76 315.07 38.76 310.69 32.78 310.69 32.78 315.07 31.3 315.07 31.3 305.04"></polygon> <path class="cls-1" d="M45.64,313.75h6.25l-3.1-7.29-3.15,7.29Zm7.83,0h1.15v4H53.26v-2.66H44.32v2.66H43v-4h1.14L48,305h1.55Z"></path> <polygon class="cls-1" points="207.82 315.52 65.87 315.52 65.9 303.63 207.82 303.63 207.82 315.52"></polygon> <path class="cls-2" d="M224.21,129.92c-3.49-2.44-10.22-7.13-14.27-9.86a1.28,1.28,0,0,1,.1-2.2c2.79-1.47,6.26-3.24,10.09-4.8a1.29,1.29,0,0,0,.61-1.9c-6.11-9.66-1.23-8.77.35-15.61a1.26,1.26,0,0,0-.65-1.39c-2.47-1.27-9.39-4.6-12.61-6.14a1.28,1.28,0,0,1-.31-2.1l7.07-6.63A1.29,1.29,0,0,0,214,77.1L198.47,73a1.29,1.29,0,0,1-.46-2.27L209.14,62a1.3,1.3,0,0,0-.53-2.29l-8.72-1.81a1.31,1.31,0,0,1-1-1.19l-1-15.94a1.28,1.28,0,0,0-1.57-1.17L186.17,42a1.23,1.23,0,0,1-1-.21l-12.93-9.33a1.32,1.32,0,0,0-1-.23l-14.1,2.7a1.29,1.29,0,0,1-1.53-1.19L153.72,3.78a1.3,1.3,0,0,0-1.31-1.21L127.53,6.19a4,4,0,0,0-1.89.82l-10.83,8.65a1.29,1.29,0,0,1-2-.11l-8.5-9.16a3.93,3.93,0,0,0-1.86-1.12L82.67,0h-.4a1.29,1.29,0,0,0-1.06,1.37l1.67,20.76a1.28,1.28,0,0,1-1.58,1.36l-19-4.62a1.29,1.29,0,0,0-1.55,1.59l2.67,10.09a1.29,1.29,0,0,1-1.12,1.62L46.06,33.72a1.29,1.29,0,0,0-1.12,1.6c.89,3.5,3.57,13.49,4.31,14.8a1.57,1.57,0,0,1,.23-1.75l7.59-7.45a1.44,1.44,0,0,1,1.76-.19L68.68,47a1.4,1.4,0,0,0,.86.19,1.43,1.43,0,0,0,.79-.28,1.34,1.34,0,0,0,.38-.46l4.89-9.28a1.22,1.22,0,0,1,.15-.17A1.41,1.41,0,0,1,77,36.37a1.74,1.74,0,0,1,.54.15l18.42,9.12a1.42,1.42,0,0,0,2-.85l2.63-8.29a1.43,1.43,0,0,1,2.59-.3l7.52,12.53a1.42,1.42,0,0,0,2.55-.21l4.9-12.46a1.46,1.46,0,0,1,.36-.53,1.44,1.44,0,0,1,1.14-.37,1.4,1.4,0,0,1,.6.21l10.09,6.45a1.4,1.4,0,0,0,1.44,0,1.49,1.49,0,0,0,.52-.45l.08-.14,6-9.12a1.39,1.39,0,0,1,1.05-.64,1.43,1.43,0,0,1,1.11.38,1.34,1.34,0,0,1,.43.74L144.06,47a1.44,1.44,0,0,0,.22.51h0a1.62,1.62,0,0,0,.37.37l15.57,10.16a1.43,1.43,0,0,1,.56,1.69,1,1,0,0,1-.17.25,1.37,1.37,0,0,1-.19.3L149,71.29a1.51,1.51,0,0,0-.42.77,1.44,1.44,0,0,0,1.4,1.71l9.43.08h.16l22.7,2.86a1.39,1.39,0,0,1,1.06.7L192,92.56a1.42,1.42,0,0,1-1,2.1s-.07,0-.11,0l-.9.08-12.07,1.09a1.42,1.42,0,0,0-1.09.72,1.54,1.54,0,0,0-.2.73,1.34,1.34,0,0,0,.22.76l7.08,10.75a1.46,1.46,0,0,1-1,2.2l-14.61,2.44a1.31,1.31,0,0,0-.39.2,1.29,1.29,0,0,0-.39.19,1.52,1.52,0,0,0-.32.6s-.05.07-.06.11a1.42,1.42,0,0,0,.59,1.5l6.76,4.62a1.44,1.44,0,0,1-.13,2.45l-8.78,4.76a1.43,1.43,0,0,0-.36,2.24,1.34,1.34,0,0,0,.79.43l11.09,2c.94.1,1.78.21,2.43.34a1,1,0,0,1,.27.14l.47.08a1.4,1.4,0,0,1,.61.27l15,11.4a1.45,1.45,0,0,1,.5,1.56l-12.69,11.83a1.41,1.41,0,0,1-1.64,1l9.38,2.65a1.29,1.29,0,0,0,1.23-.3l21.84-12.12a1.29,1.29,0,0,0,.08-1.79l-7.8-8.79a1.29,1.29,0,0,1,.62-2.1l16.36-4.45a1.29,1.29,0,0,0,.95-1.24A1.26,1.26,0,0,0,224.21,129.92Z"></path> <path class="cls-3" d="M183.74,158.14l12.69-11.83a1.45,1.45,0,0,0-.5-1.56l-15-11.4a1.4,1.4,0,0,0-.61-.27l-.47-.08-2.7-.48-11.09-2a1.34,1.34,0,0,1-.79-.43,1.43,1.43,0,0,1,.36-2.24l8.78-4.76a1.4,1.4,0,0,0,.54-.51,1.42,1.42,0,0,0,.14-1,1.4,1.4,0,0,0-.55-.91l-6.76-4.62a1.42,1.42,0,0,1-.59-1.5s0-.07.06-.11a1.52,1.52,0,0,1,.32-.6,1.29,1.29,0,0,1,.39-.19,1.31,1.31,0,0,1,.39-.2L183,111a1.41,1.41,0,0,0,1.1-1,1.43,1.43,0,0,0-.14-1.25l-7.08-10.74a1.34,1.34,0,0,1-.22-.76,1.54,1.54,0,0,1,.2-.73,1.38,1.38,0,0,1,1.09-.72L190,94.78l.9-.08s.07,0,.11,0a1.42,1.42,0,0,0,1-2.1l-8.7-15.14a1.39,1.39,0,0,0-1.06-.7l-22.7-2.86h-.16L150,73.77a1.44,1.44,0,0,1-1.4-1.71,1.51,1.51,0,0,1,.42-.77l11.46-11a1.37,1.37,0,0,0,.19-.3,1,1,0,0,0,.17-.25,1.43,1.43,0,0,0-.56-1.69L144.67,47.92a1.62,1.62,0,0,1-.37-.37h0a1.64,1.64,0,0,1-.22-.51L140.9,32.62a1.34,1.34,0,0,0-.43-.74,1.43,1.43,0,0,0-1.11-.38,1.39,1.39,0,0,0-1.05.64l-6,9.12-.08.14a1.49,1.49,0,0,1-.52.45,1.4,1.4,0,0,1-1.44,0L120.2,35.37a1.4,1.4,0,0,0-.6-.21,1.44,1.44,0,0,0-1.14.37,1.51,1.51,0,0,0-.36.52l-4.9,12.47a1.42,1.42,0,0,1-2.55.21L103.12,36.2a1.42,1.42,0,0,0-2.58.3l-2.63,8.29a1.42,1.42,0,0,1-2,.85L77.5,36.52a1.51,1.51,0,0,0-.54-.15,1.41,1.41,0,0,0-1.21.59,1.22,1.22,0,0,0-.15.17l-4.89,9.28a1.34,1.34,0,0,1-.38.46,1.43,1.43,0,0,1-.79.28,1.4,1.4,0,0,1-.86-.19l-9.85-6.23a1.43,1.43,0,0,0-1.76.19l-7.59,7.45a1.57,1.57,0,0,0-.23,1.75h0A218.93,218.93,0,0,1,60.16,69.84c.51,1.06,1.69,4.61,1.77,4.85a1.62,1.62,0,0,0,0-.19,1.07,1.07,0,0,1,.21-.92,1.06,1.06,0,0,1,.79-.4l4.86-.07a1.07,1.07,0,0,1,1.07.91l2.74,18.6a1.07,1.07,0,0,0,1.6.76l13.32-8a1.06,1.06,0,0,1,1.6,1.06l-2,14.09a1.07,1.07,0,0,0,1,1.22l15.19.12a1.08,1.08,0,0,1,1.06,1.06l.11,15.24a1.06,1.06,0,0,0,1.22,1l14-2a1.07,1.07,0,0,1,1.07,1.6l-8,13.37a1.07,1.07,0,0,0,.76,1.6l18.55,2.75a1.07,1.07,0,0,1,.9,1.07l-.07,4.87a1.07,1.07,0,0,1-1.32,1s42.23,13.27,51.41,15.66h.06A1.41,1.41,0,0,0,183.74,158.14Z"></path> <path class="cls-1" d="M30,184.45l27.14-27.22c7.17,3.17,16.75,1.14,30.31-6.2,14.75-8,26.81-11.47,43.17-7.58a1.07,1.07,0,0,0,1.32-1l.07-4.87a1.07,1.07,0,0,0-.9-1.07l-18.55-2.75a1.07,1.07,0,0,1-.76-1.6l8-13.37a1.07,1.07,0,0,0-1.07-1.6l-14,2a1.06,1.06,0,0,1-1.22-1l-.12-15.24a1.06,1.06,0,0,0-1-1.06l-15.19-.12a1.07,1.07,0,0,1-1-1.22l2-14.09a1.06,1.06,0,0,0-1.6-1.06l-13.32,8a1.07,1.07,0,0,1-1.6-.76L68.82,74a1.07,1.07,0,0,0-1.07-.91l-4.86.07a1.06,1.06,0,0,0-.79.4,1.07,1.07,0,0,0-.21.92,1.62,1.62,0,0,1,0,.19c3.81,16.31.33,28.38-7.6,43.11-7.61,14.14-9.51,24-5.79,31.25L1.4,196.34H207.82V184.45Z"></path> </g> </g> </svg> 