<svg width="352" height="307" viewBox="0 0 352 307" fill="none" xmlns="http://www.w3.org/2000/svg">
<path fill-rule="evenodd" clip-rule="evenodd" d="M351.86 65.97H268.3V55.97C268.294 51.27 267.362 46.6173 265.557 42.2778C263.752 37.9384 261.109 33.9973 257.78 30.68C254.459 27.3518 250.514 24.712 246.171 22.9119C241.827 21.1118 237.172 20.1868 232.47 20.19C222.985 20.2138 213.896 23.9921 207.189 30.6989C200.482 37.4057 196.704 46.4952 196.68 55.98V65.98H117.09L117.26 125.35C127.743 129.089 137.027 135.579 144.14 144.14C153.21 155.14 157.98 168.71 157.64 181.81C157.336 195.585 152.496 208.875 143.87 219.62C136.921 228.123 127.792 234.58 117.46 238.3L117.07 306.89L97.16 306.82L97.63 223.09L105.16 221.23C115.49 218.68 123.16 213.5 128.41 207.04C134.253 199.724 137.527 190.69 137.73 181.33C137.94 172.97 134.73 164.13 128.73 156.86C122.664 149.596 114.355 144.554 105.11 142.53L97.36 140.78L97.1 45.97H177.64C179.974 33.1348 186.745 21.5283 196.77 13.1799C206.794 4.83149 219.434 0.272499 232.48 0.299989C239.794 0.284586 247.04 1.71491 253.8 4.50879C260.56 7.30267 266.701 11.405 271.87 16.58C279.887 24.5879 285.261 34.8579 287.27 46.01H351.81L351.86 65.97Z" fill="#00926F"/>
<path fill-rule="evenodd" clip-rule="evenodd" d="M70.11 13.41H0V83.57H21.1C21.1943 86.9856 22.6175 90.2297 25.0667 92.6122C27.516 94.9948 30.7981 96.3278 34.215 96.3278C37.6319 96.3278 40.914 94.9948 43.3633 92.6122C45.8125 90.2297 47.2357 86.9856 47.33 83.57H70.16L70.1 61.57C62.69 59.9 58.37 53.48 58.53 47.57C58.69 41.66 62.24 37.14 70.03 35.21L70.11 13.41Z" fill="#6D097A"/>
</svg>
