<svg width="235" height="269" viewBox="0 0 235 269" fill="none" xmlns="http://www.w3.org/2000/svg">
<path fill-rule="evenodd" clip-rule="evenodd" d="M0 196.74H42V206.74C42.0238 217.734 46.4016 228.271 54.1755 236.045C61.9493 243.819 72.4861 248.196 83.48 248.22C94.4791 248.207 105.025 243.835 112.807 236.062C120.589 228.289 124.974 217.749 125 206.75V196.75H214.51L214.33 127.9C202.427 123.836 191.874 116.57 183.83 106.9C173.83 94.8201 168.56 79.8101 168.93 65.3801C169.271 50.1681 174.612 35.4919 184.13 23.6201C192.073 13.9343 202.564 6.66078 214.42 2.62012L214.53 0.449951L220.53 0.76001L221.64 0.469971L221.73 0.820068L234.47 1.46997L233.6 18.0701L226.41 19.8501C214.52 22.7801 205.69 28.76 199.62 36.22C192.873 44.6518 189.095 55.0734 188.87 65.8701C188.62 75.5601 192.29 85.7899 199.24 94.1899C206.227 102.574 215.808 108.39 226.47 110.72L234.22 112.48L234.51 216.81H144.12C141.767 231.174 134.381 244.233 123.282 253.65C112.183 263.067 98.0956 268.228 83.54 268.21C68.9815 268.234 54.8898 263.076 43.7879 253.658C32.6861 244.24 25.2992 231.178 22.95 216.81H0V196.74Z" fill="#FEFEFE"/>
</svg>
