<?xml version="1.0" encoding="UTF-8"?> <svg xmlns="http://www.w3.org/2000/svg" width="264" height="234" viewBox="0 0 264 234" fill="none"> <path d="M147.501 8.958C140.61 -2.979 123.379 -2.993 116.48 8.958L2.42692 206.503C-4.46408 218.439 4.13693 233.368 17.9369 233.368H200.504C204.646 233.368 208.004 230.01 208.004 225.868C208.004 221.726 204.646 218.368 200.504 218.368H17.9369C15.6979 218.368 14.2889 215.957 15.4169 214.003L129.469 16.458C130.586 14.523 133.38 14.5 134.51 16.458L248.562 214.003C249.682 215.943 248.299 218.368 246.042 218.368H235.504C231.362 218.368 228.004 221.726 228.004 225.868C228.004 230.01 231.362 233.368 235.504 233.368H246.042C259.824 233.368 268.452 218.454 261.552 206.503L147.501 8.958Z" fill="#C80000"></path> <path d="M131.99 149.585C142.124 149.585 150.495 141.659 151.049 131.541L153.609 84.749C154.286 72.359 144.398 61.916 131.99 61.916C119.581 61.916 109.694 72.36 110.371 84.749L112.931 131.541C113.485 141.659 121.856 149.585 131.99 149.585ZM131.99 76.916C135.796 76.916 138.84 80.102 138.631 83.93L136.071 130.722C135.952 132.889 134.16 134.586 131.99 134.586C129.82 134.586 128.028 132.889 127.909 130.722L125.349 83.93C125.141 80.123 128.163 76.916 131.99 76.916Z" fill="#C80000"></path> <path d="M131.99 204.93C144.215 204.93 154.16 194.985 154.16 182.76C154.16 170.535 144.215 160.59 131.99 160.59C119.765 160.59 109.82 170.535 109.82 182.76C109.82 194.985 119.765 204.93 131.99 204.93ZM131.99 175.59C135.944 175.59 139.16 178.806 139.16 182.76C139.16 186.714 135.944 189.93 131.99 189.93C128.036 189.93 124.82 186.714 124.82 182.76C124.82 178.806 128.036 175.59 131.99 175.59Z" fill="#C80000"></path> </svg> 