<svg width="60" height="73" viewBox="0 0 60 73" fill="none" xmlns="http://www.w3.org/2000/svg">
<path d="M35.4653 3C26.7696 3.25224 18.5144 6.8923 12.4527 13.1473C6.39089 19.4022 3 27.7794 3 36.5C3 45.2206 6.39089 53.5978 12.4527 59.8527C18.5144 66.1077 26.7696 69.7478 35.4653 70" stroke="#6D097A" stroke-width="6" stroke-miterlimit="22.93"/>
<path d="M41.7602 21.5099L43.3549 23.9779L20.246 38.954L17.0567 34.018L40.1096 18.9858L41.7602 21.5099ZM17.0567 34.018V38.954L13.2798 36.486L17.0567 34.018ZM17.0567 34.018L20.246 38.954V34.018L43.3549 49.0503L40.1096 53.9582L17.0567 38.954V34.018ZM23.3235 39.4308V33.5413H59.6934V39.4308H23.3235Z" fill="#6D097A"/>
</svg>
