<svg width="60" height="73" viewBox="0 0 60 73" fill="none" xmlns="http://www.w3.org/2000/svg">
<path d="M24.228 70C32.9237 69.7478 41.1789 66.1077 47.2407 59.8527C53.3025 53.5978 56.6934 45.2206 56.6934 36.5C56.6934 27.7794 53.3025 19.4022 47.2407 13.1473C41.179 6.8923 32.9238 3.25224 24.228 3" stroke="#6D097A" stroke-width="6" stroke-miterlimit="22.93"/>
<path d="M17.9331 51.4901L16.3384 49.0222L39.4473 34.046L42.6367 38.982L19.5838 54.0142L17.9331 51.4901ZM42.6367 38.982L42.6367 34.046L46.4136 36.514L42.6367 38.982ZM42.6367 38.982L39.4473 34.046L39.4473 38.982L16.3384 23.9497L19.5838 19.0418L42.6367 34.046L42.6367 38.982ZM36.3699 33.5692L36.3699 39.4587L-5.21333e-05 39.4587L-5.16184e-05 33.5692L36.3699 33.5692Z" fill="#6D097A"/>
</svg>
