<svg width="16" height="57" viewBox="0 0 16 57" fill="none" xmlns="http://www.w3.org/2000/svg">
<path d="M15.2 22.6599H0.400024V56.15H15.2V22.6599Z" fill="#6D097A"/>
<path fill-rule="evenodd" clip-rule="evenodd" d="M7.79999 15.37C9.26357 15.37 10.6943 14.936 11.9112 14.1228C13.1281 13.3097 14.0766 12.154 14.6367 10.8018C15.1968 9.44962 15.3433 7.96174 15.0578 6.52628C14.7723 5.09082 14.0675 3.77231 13.0326 2.7374C11.9977 1.70249 10.6791 0.997659 9.24365 0.712128C7.80819 0.426598 6.32031 0.573182 4.96814 1.13327C3.61597 1.69336 2.46022 2.64181 1.64709 3.85873C0.833972 5.07566 0.400024 6.50636 0.400024 7.96994C0.405303 9.93092 1.18662 11.8101 2.57324 13.1967C3.95987 14.5834 5.83901 15.3647 7.79999 15.37V15.37Z" fill="#6D097A"/>
</svg>
