<svg width="198" height="156" viewBox="0 0 198 156" fill="none" xmlns="http://www.w3.org/2000/svg">
<path fill-rule="evenodd" clip-rule="evenodd" d="M0 104.803C0.366376 106.402 5.23394 111.092 6.46392 112.507L40.6415 148.9C42.1856 150.419 45.8755 155.293 47.7859 155.817C48.9635 156.157 59.4576 155.817 61.5511 155.817C70.6582 155.817 80.3672 155.371 89.3695 155.345C91.5155 155.345 93.8969 155.135 96.3045 155.135C100.047 155.135 99.4449 155.345 101.381 153.327L111.588 142.402C112.818 140.934 113.786 140.175 115.016 138.865L121.794 131.45C125.615 127.1 132.523 120.655 135.507 117.065C137.783 114.314 140.296 112.271 142.389 109.782C146.21 105.223 151.81 99.3013 155.919 94.8996L176.593 73.3624C178.948 70.9258 181.094 68.4891 183.397 66L197.189 51.6419C199.204 49.7817 196.953 48.524 195.906 47.4498L185.805 36.524C179.995 30.5764 174.369 24.1048 168.69 18.1834L151.784 0C150.397 0 149.795 0 149.167 0.89083C148.879 1.25764 148.696 1.65065 148.304 2.12227C148.027 2.44706 147.73 2.7534 147.414 3.0393C144.274 6.18341 142.86 8.09607 140.296 10.8996L125.615 26.4105C120.983 31.6507 122.71 31.6507 114.859 23.345C113.707 22.1135 112.844 20.9869 111.692 19.8341L102.193 9.69432C101.067 8.46288 96.8017 3.37991 95.5456 3.51092C94.2894 3.64192 84.816 14.4367 83.3505 16.0611C81.3354 18.3144 79.3727 20.1223 77.3576 22.4017C75.3426 24.6812 73.4845 26.5677 71.4695 28.6638L53.4385 47.7642C52.3614 48.747 51.3474 49.7971 50.4028 50.9083C47.4718 54.7336 38.8358 62.9607 35.5385 66.6288L25.0706 77.8952C21.0666 81.8777 13.0849 90.393 8.71451 95.1092L0 104.803ZM95.8335 152.227C88.2704 152.227 56.134 152.227 52.4441 152.437C49.2252 152.725 48.1261 152.908 46.4512 151.074L35.7478 139.598C28.0801 131.476 18.3188 120.524 10.8343 112.926C8.26502 110.499 5.89349 107.87 3.74227 105.065C5.42416 102.827 7.2792 100.725 9.29024 98.7773L49.7224 56.0699C57.2593 47.8952 64.927 39.6681 72.5948 31.7555L89.8406 13.4148C97.0634 6.0262 94.5511 5.55458 100.308 11.738C101.722 13.2838 103.161 14.6201 104.626 16.1921L119.124 31.9127C120.067 33.4061 118.967 33.7991 118.078 34.7162C115.147 37.7031 112.53 40.7686 109.389 43.7031C104.888 48.0262 97.8485 56.2795 92.5099 61.6245C86.674 67.441 81.2831 73.703 75.5781 79.5196C72.6471 82.5065 69.9516 85.3624 67.0991 88.3231C65.5813 89.869 52.8628 103.336 52.6273 104.044C52.1562 105.432 53.36 105.983 54.0404 106.664C56.8406 109.886 59.5884 112.821 62.4932 115.782C63.2783 116.568 63.7232 117.249 64.4298 117.956L83.2982 138.314C86.1768 141.485 88.977 144.105 91.8818 147.38C92.9548 148.611 95.6241 150.498 95.8335 152.227ZM99.4449 150.969C98.3981 150.55 97.2204 148.847 96.4092 148.009L93.5043 144.969L82.1205 132.891C81.0737 131.817 80.4718 130.873 79.5036 129.694C76.8866 126.838 73.6677 123.825 70.9722 120.655L59.7454 108.707C55.3228 103.991 55.3751 105.092 58.0182 102.314C61.9175 98.0699 65.4243 94.3231 69.1927 90.1572C72.9611 85.9913 76.8604 82.5327 80.6289 78.3668C82.5654 76.2183 84.4758 74.3581 86.3862 72.2882L103.266 54.3406C105.228 52.3493 107.06 50.3843 109.023 48.2358C110.986 46.0873 112.713 44.5939 114.702 42.3144C121.009 35.1092 130.404 25.7555 137.312 18.262C141.029 14.2009 144.614 10.4017 148.408 6.131C149.272 5.18777 150.397 3.30131 152.098 4.63755L160.499 13.7555C162.252 15.7205 164.215 17.8428 166.099 19.7555C167.983 21.6681 169.815 23.7904 171.699 25.7555C173.584 27.7205 175.625 29.8428 177.431 31.9127L191.536 46.9258C195.933 51.5371 194.493 49.5458 188.239 56.8821C183.947 61.8341 175.154 70.2445 170.417 75.6943C166.884 79.8341 162.304 84.1572 158.458 88.2183C154.611 92.2795 150.607 96.6026 146.707 100.742L140.872 107.266C135.873 112.9 127.551 120.812 123.181 125.948C118.81 131.083 107.479 142.9 102.481 148.035C101.041 149.528 100.492 150.629 99.4449 150.969Z" fill="#1A1A1A"/>
</svg>
