<svg xmlns="http://www.w3.org/2000/svg" viewBox="0 0 142.6 122.19">
  <defs>
    <style>
      .cls-1 {
        fill: #6d097a;
      }
    </style>
  </defs>
  <g id="Слой_2" data-name="Слой 2">
    <g id="Слой_1-2" data-name="Слой 1">
      <path class="cls-1" d="M0,122.19V0L45.4.26l1.19,4.83c3.17,12.82,10.73,13,13.21,13.08,5.94.08,13.42-4.37,15.38-13.06l1.13-5L122.15,0V36.37a26.85,26.85,0,0,1,0,52.16v33.66ZM12.8,12.87v96.52h96.55V76.5h6.4a14,14,0,1,0,0-28.09h-6.4V12.85l-23.24.06c-5,12.2-16.63,18.37-26.64,18.05-6.73-.17-18.2-2.85-23.82-18Z"/>
    </g>
  </g>
</svg>
