<svg width="71" height="84" viewBox="0 0 71 84" fill="none" xmlns="http://www.w3.org/2000/svg">
<path fill-rule="evenodd" clip-rule="evenodd" d="M70.47 0.300049H0.309998V70.45H21.4C21.3516 72.2027 21.655 73.9476 22.2924 75.5811C22.9297 77.2146 23.888 78.7036 25.1106 79.9604C26.3332 81.2173 27.7954 82.2165 29.4106 82.8987C31.0259 83.5809 32.7616 83.9321 34.515 83.9321C36.2684 83.9321 38.004 83.5809 39.6193 82.8987C41.2346 82.2165 42.6968 81.2173 43.9194 79.9604C45.1421 78.7036 46.1003 77.2146 46.7377 75.5811C47.375 73.9476 47.6784 72.2027 47.63 70.45H70.46L70.4 48.45C62.99 46.77 58.67 40.36 58.83 34.45C58.99 28.54 62.54 24.0201 70.33 22.1001L70.47 0.300049Z" fill="#CAE6DF"/>
</svg>
