<svg width="249" height="126" viewBox="0 0 249 126" fill="none" xmlns="http://www.w3.org/2000/svg">
<path fill-rule="evenodd" clip-rule="evenodd" d="M27.16 0.0900879C27.42 25.7499 37.7958 50.2705 56.0326 68.3235C74.2695 86.3765 98.8939 96.5032 124.555 96.5032C150.216 96.5032 174.841 86.3765 193.077 68.3235C211.314 50.2705 221.69 25.7499 221.95 0.0900879H248.61C248.757 16.4749 245.657 32.7266 239.489 47.9067C233.32 63.0869 224.206 76.8948 212.672 88.533C201.137 100.171 187.412 109.409 172.288 115.714C157.164 122.018 140.941 125.264 124.555 125.264C108.169 125.264 91.9463 122.018 76.8221 115.714C61.698 109.409 47.9726 100.171 36.4384 88.533C24.9042 76.8948 15.7898 63.0869 9.62142 47.9067C3.45304 32.7266 0.352886 16.4749 0.499996 0.0900879H27.16Z" fill="#9A34A8"/>
</svg>
