<svg width="95" height="187" viewBox="0 0 95 187" fill="none" xmlns="http://www.w3.org/2000/svg">
<path fill-rule="evenodd" clip-rule="evenodd" d="M0.289978 0.0999711C12.619 -0.0276946 24.851 2.29041 36.2784 6.92016C47.7058 11.5499 58.1019 18.3994 66.8653 27.0726C75.6287 35.7457 82.5855 46.0703 87.3333 57.4492C92.0811 68.828 94.5258 81.0353 94.5258 93.365C94.5258 105.695 92.0811 117.902 87.3333 129.281C82.5855 140.66 75.6287 150.984 66.8653 159.657C58.1019 168.331 47.7058 175.18 36.2784 179.81C24.851 184.44 12.619 186.758 0.289978 186.63V166.63C19.7224 166.63 38.3589 158.91 52.0997 145.17C65.8405 131.429 73.56 112.792 73.56 93.36C73.56 73.9276 65.8405 55.2911 52.0997 41.5503C38.3589 27.8095 19.7224 20.09 0.289978 20.09V0.0999711Z" fill="#E8AAF0"/>
</svg>
