<svg width="230" height="205" viewBox="0 0 230 205" fill="none" xmlns="http://www.w3.org/2000/svg">
<path fill-rule="evenodd" clip-rule="evenodd" d="M6 63H121V178.35H86.4655C86.4655 184.092 84.1914 189.599 80.1436 193.659C76.0958 197.719 70.6058 200 64.8814 200C59.1569 200 53.6669 197.719 49.6191 193.659C45.5713 189.599 43.2973 184.092 43.2973 178.35H6V142.152C11.3008 141.065 16.0713 138.191 19.5188 134.009C22.9662 129.826 24.8831 124.586 24.9508 119.16C24.9508 109.46 18.8641 101.84 6.1295 98.8521L6 63Z" stroke="#00926F" stroke-width="10" stroke-miterlimit="22.93"/>
<path fill-rule="evenodd" clip-rule="evenodd" d="M230 0V25.639C224.865 25.639 219.941 27.6788 216.31 31.3097C212.679 34.9406 210.639 39.8651 210.639 45C210.639 50.1349 212.679 55.0594 216.31 58.6903C219.941 62.3212 224.865 64.361 230 64.361V90H204.361C204.361 84.8651 202.321 79.9406 198.69 76.3097C195.059 72.6788 190.135 70.639 185 70.639C179.865 70.639 174.941 72.6788 171.31 76.3097C167.679 79.9406 165.639 84.8651 165.639 90H140V0H230Z" fill="#6D097A"/>
</svg>
