<svg xmlns="http://www.w3.org/2000/svg" viewBox="0 0 180.34 266.5">
  <defs>
    <style>
      .cls-1 {
        fill: #00926f;
        fill-rule: evenodd;
      }
    </style>
  </defs>
  <g id="Слой_2" data-name="Слой 2">
    <g id="Слой_1-2" data-name="Слой 1">
      <path class="cls-1" d="M0,237.72H107V166.24h14.45a30.17,30.17,0,0,0,30-30.05h0a30.15,30.15,0,0,0-30-30v.06H107V28.86L57.33,29A64.69,64.69,0,0,1,38.86,54,60.69,60.69,0,0,1,0,68.24V39.45A31.73,31.73,0,0,0,20.46,31.8,36.64,36.64,0,0,0,32.79,11.47L35.33.27,135.91,0V79.14a58.67,58.67,0,0,1,44.38,57h0a58.69,58.69,0,0,1-44.38,57.06V266.5H0Z"/>
    </g>
  </g>
</svg>
