<svg xmlns="http://www.w3.org/2000/svg" viewBox="0 0 158.34 338.3">
  <defs>
    <style>
      .cls-1 {
        fill: #cae6df;
        fill-rule: evenodd;
      }
    </style>
  </defs>
  <g id="Слой_2" data-name="Слой 2">
    <g id="Слой_1-2" data-name="Слой 1">
      <path class="cls-1" d="M16,0H158.34V32H32.06l.3,52.44c11.23,4.29,20.14,10.2,26.89,17.45,10.13,10.87,15.1,24.28,15.49,39.37S69.66,172,59.26,184.58a70.56,70.56,0,0,1-27.11,20.06L32,258.06h84v16h-.07a32.45,32.45,0,0,0,32.3,32.29v-.06h0v.06a32.26,32.26,0,0,0,10.12-1.62v32.71a64.79,64.79,0,0,1-10.12.79v.06h0v-.06A64,64,0,0,1,86,290.06H0l.3-109.77,12.4-2.81a39.44,39.44,0,0,0,21.9-13.28c5.51-6.65,8.42-14.67,8.23-22.19-.19-7.21-2.43-13.47-7-18.37-4.84-5.19-12.47-9.29-23.21-12l-12-3L0,0Z"/>
    </g>
  </g>
</svg>
