<?xml version="1.0" encoding="UTF-8"?> <svg xmlns="http://www.w3.org/2000/svg" viewBox="0 0 466.55 532.84"> <defs> <style>.cls-1{fill:#fefefe;}</style> </defs> <g id="Слой_2" data-name="Слой 2"> <g id="Слой_1-2" data-name="Слой 1"> <path class="cls-1" d="M166.2,532.84h0c-60.62,0-111.08-44.36-120.62-102.34H0V390.72H83.73v19.89a82.56,82.56,0,0,0,82.46,82.45h0a82.44,82.44,0,0,0,82.43-82.45V390.72h178l-.38-136.92c-60.94-20.86-91.55-76.61-90.31-124.59C337.13,84.44,361.81,26.9,426.5,4.3l.22-4.3,11.83.63,2.3-.59.17.72L466.45,2.1l-1.74,33-14.32,3.54c-53.63,13.25-73.73,56-74.65,91.57-.9,34.8,25,77.86,74.79,89.14l15.46,3.5.56,207.62H286.82A122.3,122.3,0,0,1,166.2,532.84Z"></path> </g> </g> </svg> 