<svg width="13" height="26" viewBox="0 0 13 26" fill="none" xmlns="http://www.w3.org/2000/svg">
<path fill-rule="evenodd" clip-rule="evenodd" d="M12.61 5.40002C11.5908 5.36301 10.5745 5.53185 9.62194 5.89636C8.66938 6.26087 7.80006 6.81362 7.0659 7.52161C6.33173 8.22959 5.74779 9.07827 5.34895 10.017C4.9501 10.9557 4.74454 11.9652 4.74454 12.9851C4.74454 14.005 4.9501 15.0144 5.34895 15.9531C5.74779 16.8918 6.33173 17.7405 7.0659 18.4485C7.80006 19.1565 8.66938 19.7092 9.62194 20.0737C10.5745 20.4382 11.5908 20.6071 12.61 20.5701V25.91C9.24431 25.8164 6.04789 24.4136 3.70041 21.9999C1.35292 19.5862 0.0395508 16.3521 0.0395508 12.9851C0.0395508 9.61812 1.35292 6.38391 3.70041 3.97021C6.04789 1.55652 9.24431 0.153685 12.61 0.0600586V5.40002Z" fill="#FEFEFE"/>
</svg>
